<svg version="1.2" baseProfile="tiny-ps" xmlns="http://www.w3.org/2000/svg" viewBox="0 0 403 512" width="current" height="current">
	<title>coffee-cup-svg</title>
	<style>
		tspan { white-space:pre }
		.shp0 { fill: #c38c66 } 
		.shp1 { fill: #b57f5f } 
		.shp2 { fill: #f5e1b6 } 
		.shp3 { fill: #f7d69b } 
		.shp4 { fill: #d19a6e } 
		.shp5 { fill: #966a5b } 
		.shp6 { fill: #785353 } 
	</style>
	<g id="Layer">
		<path id="Layer" class="shp0" d="M331.62 9.3C325.9 3.42 317.23 0 308.07 0L111.43 0L94.17 41.29L94.17 57.81L362.78 57.81L346.7 24.77L331.62 9.3Z" />
		<path id="Layer" class="shp1" d="M111.43 0L95.77 0C86.6 0 77.94 3.42 72.22 9.3L41.05 41.29L41.05 57.81L362.78 57.81L362.78 41.29L346.7 24.77L141.59 24.77C124.94 24.77 111.43 13.68 111.43 0L111.43 0Z" />
		<path id="Layer" class="shp2" d="M372.84 57.81L71.16 57.81L61.11 74.32L99.92 496.73C100.71 505.34 109.45 512 119.97 512L324.03 512C334.55 512 343.29 505.34 344.08 496.73L352.54 404.64L342.74 390.67L354.93 378.67L381.38 90.84L372.84 57.81Z" />
		<path id="Layer" class="shp3" d="M381.38 90.84L382.89 74.32L372.84 57.81L31 57.81L20.95 74.32L59.76 496.73C60.55 505.34 69.29 512 79.81 512L119.97 512L112.55 431.28C111.23 416.91 125.08 404.64 142.63 404.64L352.54 404.64L355.58 371.61L107.07 371.61L83.72 117.48C82.4 103.1 96.24 90.84 113.79 90.84L381.38 90.84L381.38 90.84Z" />
		<path id="Layer" class="shp0" d="M401.17 57.86C397.03 48.24 385.87 41.34 372.73 41.33L111.33 41.18C94.67 41.17 81.15 65.94 81.15 65.94C81.14 70.5 394.16 64.14 394.16 64.14L401.17 57.86Z" />
		<path id="Layer" class="shp4" d="M108.59 388.13L364.9 388.13C370.16 388.13 374.53 384.8 374.92 380.49L394.65 165.78C395.09 160.99 390.48 156.9 384.63 156.9L87.34 156.9L69.21 302L108.59 388.13Z" />
		<path id="Layer" class="shp1" d="M111.43 41.29L31 41.29C14.42 41.29 0.97 52.27 0.84 65.87C0.8 70.49 5.26 74.32 10.89 74.32L392.95 74.32C398.3 74.32 402.89 70.86 402.99 66.47C403.07 63.41 402.45 60.52 401.28 57.81L131.54 57.81C120.43 57.81 111.43 50.41 111.43 41.29L111.43 41.29Z" />
		<path id="Layer" class="shp0" d="M87.34 156.9L19.21 156.9C13.36 156.9 8.75 160.99 9.19 165.78L28.92 380.49C29.31 384.8 33.68 388.13 38.94 388.13L108.59 388.13L87.34 156.9Z" />
	</g>
	<g id="폴더 1">
		<path id="Layer" class="shp5" d="M225.13 211.95L209.27 206.97C206.89 206.63 204.46 206.45 202 206.45C170.07 206.45 144.19 236.03 144.19 272.52C144.19 305.13 164.87 332.22 192.05 337.61L211.8 337.63C239.06 332.31 259.81 305.18 259.81 272.52C259.81 245.43 245.54 222.15 225.13 211.95L225.13 211.95Z" />
		<path id="Layer" class="shp6" d="M225.13 211.95C220.16 209.47 214.84 207.77 209.27 206.97C207.07 220.17 201.58 228.26 195.22 237.44C186.78 249.6 177.22 263.38 177.22 289.78C177.22 312.93 184.56 326.44 192.05 337.61C195.29 338.25 198.6 338.58 202 338.58C205.33 338.58 208.62 338.25 211.8 337.63C211.6 337.18 211.47 336.63 211.19 336.21L208.79 332.73C200.72 321.09 193.74 311.02 193.74 289.78C193.74 268.55 200.72 258.49 208.79 246.85C215.06 237.8 222.06 227.55 225.13 211.95L225.13 211.95Z" />
	</g>
</svg>