<svg version="1.2" baseProfile="tiny-ps"
	 xmlns="http://www.w3.org/2000/svg" viewBox="0 0 512 512"
	 width="current" height="512">
	<title>coffee-cup-svg</title>
	<style>
		tspan { white-space:pre }
		.shp0 { fill: #88817e } 
		.shp1 { fill: #665c57 } 
		.shp2 { fill: #e6e1d5 } 
		.shp3 { fill: #f4eee5 } 
		.shp4 { fill: #6f6864 } 
		.shp5 { fill: #966a5b } 
		.shp6 { fill: #785353 } 
	</style>
	<g id="Layer">
		<path id="Layer" class="shp0" d="M382.58 9.3C377.01 3.42 368.58 0 359.67 0L168.41 0L151.62 41.29L151.62 57.81L412.88 57.81L397.24 24.77L382.58 9.3Z" />
		<path id="Layer" class="shp1" d="M168.41 0L153.17 0C144.26 0 135.83 3.42 130.26 9.3L99.95 41.29L99.95 57.81L412.88 57.81L412.88 41.29L397.24 24.77L197.74 24.77C181.54 24.77 168.41 13.68 168.41 0L168.41 0Z" />
		<path id="Layer" class="shp2" d="M422.66 57.81L129.24 57.81L119.46 74.32L157.21 496.73C157.98 505.34 166.48 512 176.71 512L375.19 512C385.42 512 393.92 505.34 394.69 496.73L402.92 404.64L393.39 390.67L405.24 378.67L430.97 90.84L422.66 57.81Z" />
		<path id="Layer" class="shp3" d="M430.97 90.84L432.44 74.32L422.66 57.81L90.17 57.81L80.4 74.32L118.15 496.73C118.92 505.34 127.42 512 137.65 512L176.71 512L169.5 431.28C168.21 416.91 181.68 404.64 198.75 404.64L402.92 404.64L405.87 371.61L164.16 371.61L141.45 117.48C140.17 103.1 153.63 90.84 170.71 90.84L430.97 90.84L430.97 90.84Z" />
		<path id="Layer" class="shp0" d="M450.22 57.86C446.19 48.24 435.33 41.34 422.56 41.33L168.31 41.18C152.1 41.17 138.95 65.94 138.95 65.94C138.94 70.5 443.4 64.14 443.4 64.14L450.22 57.86Z" />
		<path id="Layer" class="shp0" d="M165.64 388.13L414.94 388.13C420.06 388.13 424.31 384.8 424.69 380.49L443.88 165.78C444.31 160.99 439.82 156.9 434.13 156.9L144.98 156.9L127.34 302L165.64 388.13Z" />
		<path id="Layer" class="shp1" d="M168.41 41.29L90.17 41.29C74.05 41.29 60.96 52.27 60.84 65.87C60.8 70.49 65.14 74.32 70.62 74.32L442.22 74.32C447.43 74.32 451.9 70.86 451.99 66.47C452.06 63.41 451.46 60.52 450.32 57.81L187.97 57.81C177.16 57.81 168.41 50.41 168.41 41.29L168.41 41.29Z" />
		<path id="Layer" class="shp4" d="M144.97 156.9L78.71 156.9C73.02 156.9 68.53 160.99 68.96 165.78L88.15 380.49C88.53 384.8 92.78 388.13 97.9 388.13L165.64 388.13L144.97 156.9Z" />
	</g>
	<g id="폴더 1">
		<path id="Layer" class="shp5" d="M284.57 204.1L266.62 198.57C263.93 198.2 261.19 198 258.4 198C222.28 198 193 230.81 193 271.27C193 307.44 216.39 337.49 247.15 343.47L269.49 343.5C300.33 337.6 323.81 307.51 323.81 271.27C323.81 241.23 307.67 215.41 284.57 204.1L284.57 204.1Z" />
		<path id="Layer" class="shp6" d="M284.57 204.1C278.95 201.35 272.93 199.46 266.62 198.57C264.15 213.22 257.92 222.19 250.73 232.37C241.19 245.85 230.37 261.14 230.37 290.42C230.37 316.1 238.67 331.09 247.15 343.47C250.81 344.18 254.56 344.55 258.4 344.55C262.17 344.55 265.9 344.19 269.49 343.5C269.27 343 269.12 342.39 268.8 341.92L266.09 338.06C256.95 325.15 249.06 313.98 249.06 290.42C249.06 266.87 256.95 255.72 266.09 242.8C273.18 232.77 281.09 221.4 284.57 204.1L284.57 204.1Z" />
	</g>
</svg>