<svg xmlns="http://www.w3.org/2000/svg" xmlns:xlink="http://www.w3.org/1999/xlink" xmlns:svgjs="http://svgjs.com/svgjs" version="1.1" width="512" height="512" x="0" y="0" viewBox="0 0 497 497" style="enable-background:new 0 0 512 512" xml:space="preserve" class=""><g transform="matrix(1,0,0,1,-2.842170943040401e-14,0)"><g xmlns="http://www.w3.org/2000/svg"><path d="m193.703 359.881c9.97 3.406 26.62 1.754 35.211-2.101 72.598-102.885 83.599-192.682 6.862-269.079-9.97-3.406-27.081-2.864-37.055.527-66.71 86.063-63.584 175.954-5.018 270.653z" fill="#865151" data-original="#865151" style="" class=""/><path d="m197.979 219.629c-16.234 51.203-19.077 97.6-6.258 135.449 1.829 5.401-2.482 10.881-7.565 9.526-52.8-14.074-78.301-67.38-78.249-140.478.033-45.893 11.715-86.176 33.529-113.883 2.369-3.009 5.383-9.264 5.383-9.264 11.756-12.106 25.888-20.765 42.203-24.964 2.809-.723 5.716.723 7.128 3.495 13.246 26.004 18.323 54.218 15.334 86.131 0 0-4.951 6.76-5.727 11.566-2.046 12.667-1.368 28.517-5.778 42.422z" fill="#9d5e5e" data-original="#9d5e5e" style="" class=""/><path d="m325.69 224.387c-.053 73.657-30.263 134.993-83.856 148.368-2.542.634-5.183-.455-6.717-2.778-16.58-25.11-22.454-81.548-3.627-140.919 6.506-20.52 12.05-39.769 14.005-58.126.087-.82-1.057-2.54-1.057-2.54 2.868-29.923-.391-57.249-9.846-82.891-1.963-5.324 2.392-10.861 7.475-9.584 31.801 7.99 55.337 32.871 69.201 67.182 0 0-.719 4.455-.116 6.091 8.265 22.429 14.558 47.312 14.538 75.197z" fill="#9d5e5e" data-original="#9d5e5e" style="" class=""/><path d="m325.69 224.39c-.01 17.26-1.68 33.85-4.92 49.3-10.06 6.99-21.15 13.61-33.42 19.97-23.93 12.41-46.02 28.63-63.81 46.36-6.31-28.97-5.28-69.24 7.95-110.96 6.8-21.44 11.12-41.58 12.94-60.67 22.11-13.64 44.927-22.333 66.837-25.293 9.49 23.48 14.443 51.373 14.423 81.293z" fill="#865151" data-original="#865151" style="" class=""/><path d="m202.036 205.777c.034-.128.072-.258.106-.387.461-1.73.906-3.451 1.328-5.16-.008.007-.015.015-.023.022 2.972-12.02 4.997-23.542 6.033-34.612l-64.661-64.661c-14.01 14.4-24.609 33.691-31.549 56.131l.008.008c-6.241 20.218-9.489 43.005-9.508 67.112-.06 73.1 29.62 134.09 82.42 148.17 5.09 1.35 9.4-4.13 7.57-9.53-1.4-4.13-10.104-98.081 4.22-143.24.698-2.196 1.354-4.37 1.992-6.534.124-.422.247-.843.369-1.264.59-2.032 1.158-4.052 1.695-6.055zm-60.146 88.853c-.566 1.873-1.093 3.739-1.58 5.599-.68 2.599-4.186 3.04-5.507.701-14.787-26.208-22.61-59.907-22.584-96.67.01-13.282 1.047-26.157 3.064-38.424.396-2.408 3.361-3.351 5.087-1.625l60.403 60.403c-18.414 22.403-31.7 46.247-38.883 70.016z" fill="#865151" data-original="#865151" style="" class=""/><path d="m320.77 273.69c-10.58 50.47-37.9 88.82-78.94 99.06-2.54.64-5.18-.45-6.71-2.77-4.93-7.47-8.92-17.7-11.58-29.96 17.79-17.73 39.88-33.95 63.81-46.36 12.27-6.36 23.36-12.98 33.42-19.97z" fill="#9d5e5e" data-original="#9d5e5e" style="" class=""/><path d="m176.014 372.604c.167.34 18.22 10.088 18.22 10.088l9.883 16.357c124.086-21.416 195.36-77.133 195.12-185.416-4.641-9.458-17.124-21.174-26.575-25.829-108.028 13.686-171.099 76.426-196.648 184.8z" fill="#9d5e5e" data-original="#9d5e5e" style="" class=""/><path d="m233.29 393.14c-9.37 2.21-19.09 4.17-29.17 5.91-8.49-3.23-20.82-13.2-25.86-22.39-.18-.34-2.08-3.72-2.25-4.06 2.66-11.29 5.73-22.08 9.23-32.38 4.33 13.65 11.59 25.86 21.89 35.83 7.65 7.4 16.48 13.08 26.16 17.09z" fill="#865151" data-original="#865151" style="" class=""/><path d="m279.988 279.459c-37.008 19.19-68.718 46.224-89.336 74.115-5.948 8.047-10.68 6.972-14.642 14.994-2.525 5.112-9.449 5.939-12.085 1.387-27.383-47.287 30.309-132.143 30.309-132.143l42.524-44.895c46.118-34.588 97.544-46.079 137.032-22.757 2.497 1.475 3.531 4.553 2.569 7.512-13.795 42.44-44.749 75.027-96.371 101.787z" fill="#b06c6c" data-original="#b06c6c" style="" class=""/><path d="m363.665 371.904c-52.12 52.046-108.733 72.861-156.086 44.422-2.246-1.349-3.343-3.987-2.785-6.714 1.85-9.041 8.785-27.952 8.785-27.952 16.158-24.685 45.101-51.961 83.438-71.837 51.264-26.582 84.956-58.669 103.704-99.318 2.376-5.152 9.372-5.988 12.063-1.491 23.666 39.548 12.188 91.147-22.547 137.385 0 0-6.105 2.83-8.076 5.249-5.398 6.624-12.18 13.949-18.496 20.256z" fill="#b06c6c" data-original="#b06c6c" style="" class=""/><path d="m332.46 288.62-23.51 28.045-31.62 4.505-25.18-25.18 24.433-20.279 30.727-12.241z" fill="#865151" data-original="#865151" style="" class=""/><path d="m390.24 346.4-57.78-57.78c-4.07 2.83-8.3 5.61-12.69 8.33-1.38.85-2.79 1.71-4.21 2.55-12.482 7.535-28.247 15.006-38.23 21.67l57.566 57.566c1.954 1.954 1.391 5.272-1.111 6.446-43.874 20.592-89.311 20.691-120.205-3.521-7.15 10.92-11.79 21.33-13.64 30.37-.56 2.73.54 5.37 2.78 6.72 41.52 24.924 96.391 11.081 144.412-27.778.005-.004.009-.011.014-.015 6.755-5.456 13.359-11.412 19.784-17.827 8.62-8.611 16.42-17.561 23.31-26.731z" fill="#9d5e5e" data-original="#9d5e5e" style="" class=""/><path d="m236.758 192.917c-9.14 6.85-18.058 14.603-26.638 23.173-6.417 6.408-12.37 13.003-17.833 19.736-.047.055-.094.105-.141.161-38.518 47.521-52.474 101.784-28.516 143.163 2.64 4.55 9.56 3.72 12.09-1.39 3.96-8.02 8.99-16.14 14.94-24.18-15.211-30.223-13.29-70.341 4.132-109.166.863-1.924 3.381-2.401 4.872-.91l52.486 52.486c8.85-5.96 18.16-11.51 27.84-16.53 9.85-5.11 18.95-10.43 27.32-15.99z" fill="#9d5e5e" data-original="#9d5e5e" style="" class=""/>

</g></g></svg>