<svg version="1.2" baseProfile="tiny-ps"
	 xmlns="http://www.w3.org/2000/svg"
	 viewBox="0 0 512 512" width="current" height="current">
	<title>login-svg</title>
	<style>
		tspan { white-space:pre }
		.shp0 { fill: #613510 } 
		.shp1 { fill: #99580e } 
		.shp2 { fill: #ffe2c8 } 
	</style>
	<path id="Layer" class="shp0" d="M282.52 7.89C205.95 8.33 144.56 71.61 144.56 148.19L144.56 184.51L186.61 184.51L186.61 147.89C186.61 94.64 229.13 50.46 282.38 49.94C336.15 49.42 380.06 93.01 380.06 146.66L380.06 221.85C380.06 233.26 388.92 242.97 400.32 243.37C412.28 243.8 422.11 234.23 422.11 222.36L422.11 146.66C422.11 69.87 359.42 7.45 282.52 7.89Z" />
	<path id="Layer" class="shp1" d="M464.16 504.12L102.5 504.12L102.5 253.9C102.5 236.48 116.63 222.36 134.04 222.36L432.62 222.36C450.04 222.36 464.16 236.48 464.16 253.9L464.16 504.12L464.16 504.12Z" />
	<g id="Layer">
		<path id="Layer" class="shp2" d="M359.03 432.62C359.03 390.82 325.14 356.93 283.34 356.93C241.53 356.93 207.64 390.82 207.64 432.62L207.64 474.68L359.03 474.68L359.03 432.62L359.03 432.62Z" />
		<path id="Layer" class="shp2" d="M283.33 347.31C257.75 347.31 237.08 326.63 237.08 301.05C237.08 275.47 257.75 254.79 283.33 254.79C308.92 254.79 329.59 275.47 329.59 301.05C329.59 326.63 308.92 347.31 283.33 347.31Z" />
	</g>
	<g id="Layer">
	</g>
	<g id="Layer">
	</g>
	<g id="Layer">
	</g>
	<g id="Layer">
	</g>
	<g id="Layer">
	</g>
	<g id="Layer">
	</g>
	<g id="Layer">
	</g>
	<g id="Layer">
	</g>
	<g id="Layer">
	</g>
	<g id="Layer">
	</g>
	<g id="Layer">
	</g>
	<g id="Layer">
	</g>
	<g id="Layer">
	</g>
	<g id="Layer">
	</g>
	<g id="Layer">
	</g>
	<g id="Layer">
	</g>
	<g id="Layer">
	</g>
	<g id="Layer">
	</g>
</svg>